<mxfile host="app.diagrams.net" modified="2020-09-25T22:00:57.165Z" agent="5.0 (X11; Linux x86_64) AppleWebKit/537.36 (KHTML, like Gecko) Chrome/85.0.4183.121 Safari/537.36" etag="gwwuYzRZOFHsuGusBAu8" version="13.7.3" type="github">
  <diagram id="3QOtglZNj9Q2IBxmUiDg" name="Page-1">
    <mxGraphModel dx="1350" dy="717" grid="1" gridSize="10" guides="1" tooltips="1" connect="1" arrows="1" fold="1" page="1" pageScale="1" pageWidth="827" pageHeight="1169" math="0" shadow="0">
      <root>
        <mxCell id="0" />
        <mxCell id="1" parent="0" />
        <mxCell id="Hf4-NCFFuVOZYVs5iG5I-1" value="" style="rounded=0;whiteSpace=wrap;html=1;" parent="1" vertex="1">
          <mxGeometry x="180" y="100" width="430" height="640" as="geometry" />
        </mxCell>
        <mxCell id="Hf4-NCFFuVOZYVs5iG5I-6" value="" style="group" parent="1" vertex="1" connectable="0">
          <mxGeometry x="10" y="240" width="110" height="120" as="geometry" />
        </mxCell>
        <mxCell id="Hf4-NCFFuVOZYVs5iG5I-5" value="" style="rounded=0;whiteSpace=wrap;html=1;" parent="Hf4-NCFFuVOZYVs5iG5I-6" vertex="1">
          <mxGeometry width="110" height="120" as="geometry" />
        </mxCell>
        <mxCell id="Hf4-NCFFuVOZYVs5iG5I-2" value="CEO/company" style="shape=umlActor;verticalLabelPosition=bottom;verticalAlign=top;html=1;outlineConnect=0;" parent="Hf4-NCFFuVOZYVs5iG5I-6" vertex="1">
          <mxGeometry x="40" y="20" width="30" height="60" as="geometry" />
        </mxCell>
        <mxCell id="Hf4-NCFFuVOZYVs5iG5I-7" value="" style="group" parent="1" vertex="1" connectable="0">
          <mxGeometry x="640" y="240" width="110" height="120" as="geometry" />
        </mxCell>
        <mxCell id="Hf4-NCFFuVOZYVs5iG5I-8" value="" style="rounded=0;whiteSpace=wrap;html=1;" parent="Hf4-NCFFuVOZYVs5iG5I-7" vertex="1">
          <mxGeometry width="110" height="120" as="geometry" />
        </mxCell>
        <mxCell id="Hf4-NCFFuVOZYVs5iG5I-9" value="Employee" style="shape=umlActor;verticalLabelPosition=bottom;verticalAlign=top;html=1;outlineConnect=0;" parent="Hf4-NCFFuVOZYVs5iG5I-7" vertex="1">
          <mxGeometry x="40" y="20" width="30" height="60" as="geometry" />
        </mxCell>
        <mxCell id="Hf4-NCFFuVOZYVs5iG5I-10" value="Create company" style="ellipse;whiteSpace=wrap;html=1;fillColor=#dae8fc;strokeColor=#6c8ebf;" parent="1" vertex="1">
          <mxGeometry x="240" y="130" width="120" height="50" as="geometry" />
        </mxCell>
        <mxCell id="Hf4-NCFFuVOZYVs5iG5I-11" value="Add employee" style="ellipse;whiteSpace=wrap;html=1;fillColor=#dae8fc;strokeColor=#6c8ebf;" parent="1" vertex="1">
          <mxGeometry x="240" y="310" width="120" height="50" as="geometry" />
        </mxCell>
        <mxCell id="Hf4-NCFFuVOZYVs5iG5I-12" value="Create ESOP" style="ellipse;whiteSpace=wrap;html=1;fillColor=#dae8fc;strokeColor=#6c8ebf;" parent="1" vertex="1">
          <mxGeometry x="240" y="370" width="120" height="50" as="geometry" />
        </mxCell>
        <mxCell id="Hf4-NCFFuVOZYVs5iG5I-13" value="Login to account" style="ellipse;whiteSpace=wrap;html=1;fillColor=#dae8fc;strokeColor=#6c8ebf;" parent="1" vertex="1">
          <mxGeometry x="240" y="190" width="120" height="50" as="geometry" />
        </mxCell>
        <mxCell id="Hf4-NCFFuVOZYVs5iG5I-14" value="Distribute shares to employee" style="ellipse;whiteSpace=wrap;html=1;fillColor=#dae8fc;strokeColor=#6c8ebf;" parent="1" vertex="1">
          <mxGeometry x="240" y="430" width="120" height="50" as="geometry" />
        </mxCell>
        <mxCell id="Hf4-NCFFuVOZYVs5iG5I-15" value="View CAP table" style="ellipse;whiteSpace=wrap;html=1;fillColor=#dae8fc;strokeColor=#6c8ebf;" parent="1" vertex="1">
          <mxGeometry x="240" y="490" width="120" height="50" as="geometry" />
        </mxCell>
        <mxCell id="Hf4-NCFFuVOZYVs5iG5I-16" value="View general dashboard" style="ellipse;whiteSpace=wrap;html=1;fillColor=#dae8fc;strokeColor=#6c8ebf;" parent="1" vertex="1">
          <mxGeometry x="240" y="550" width="120" height="50" as="geometry" />
        </mxCell>
        <mxCell id="Hf4-NCFFuVOZYVs5iG5I-17" value="Create new type of share" style="ellipse;whiteSpace=wrap;html=1;fillColor=#dae8fc;strokeColor=#6c8ebf;" parent="1" vertex="1">
          <mxGeometry x="240" y="610" width="120" height="50" as="geometry" />
        </mxCell>
        <mxCell id="Hf4-NCFFuVOZYVs5iG5I-18" value="Dilute shares" style="ellipse;whiteSpace=wrap;html=1;fillColor=#dae8fc;strokeColor=#6c8ebf;" parent="1" vertex="1">
          <mxGeometry x="240" y="670" width="120" height="50" as="geometry" />
        </mxCell>
        <mxCell id="Hf4-NCFFuVOZYVs5iG5I-20" style="edgeStyle=none;rounded=0;orthogonalLoop=1;jettySize=auto;html=1;exitX=1;exitY=0.5;exitDx=0;exitDy=0;entryX=0;entryY=0.5;entryDx=0;entryDy=0;" parent="1" source="Hf4-NCFFuVOZYVs5iG5I-5" target="Hf4-NCFFuVOZYVs5iG5I-10" edge="1">
          <mxGeometry relative="1" as="geometry" />
        </mxCell>
        <mxCell id="Hf4-NCFFuVOZYVs5iG5I-21" style="edgeStyle=none;rounded=0;orthogonalLoop=1;jettySize=auto;html=1;exitX=1;exitY=0.5;exitDx=0;exitDy=0;entryX=0;entryY=0.5;entryDx=0;entryDy=0;" parent="1" source="Hf4-NCFFuVOZYVs5iG5I-5" target="Hf4-NCFFuVOZYVs5iG5I-13" edge="1">
          <mxGeometry relative="1" as="geometry" />
        </mxCell>
        <mxCell id="Hf4-NCFFuVOZYVs5iG5I-22" style="edgeStyle=none;rounded=0;orthogonalLoop=1;jettySize=auto;html=1;exitX=1;exitY=0.5;exitDx=0;exitDy=0;entryX=0;entryY=0.5;entryDx=0;entryDy=0;" parent="1" source="Hf4-NCFFuVOZYVs5iG5I-5" target="Hf4-NCFFuVOZYVs5iG5I-11" edge="1">
          <mxGeometry relative="1" as="geometry" />
        </mxCell>
        <mxCell id="Hf4-NCFFuVOZYVs5iG5I-23" style="edgeStyle=none;rounded=0;orthogonalLoop=1;jettySize=auto;html=1;exitX=1;exitY=0.5;exitDx=0;exitDy=0;entryX=0;entryY=0.5;entryDx=0;entryDy=0;" parent="1" source="Hf4-NCFFuVOZYVs5iG5I-5" target="Hf4-NCFFuVOZYVs5iG5I-12" edge="1">
          <mxGeometry relative="1" as="geometry" />
        </mxCell>
        <mxCell id="Hf4-NCFFuVOZYVs5iG5I-24" style="edgeStyle=none;rounded=0;orthogonalLoop=1;jettySize=auto;html=1;exitX=1;exitY=0.5;exitDx=0;exitDy=0;entryX=0;entryY=0.5;entryDx=0;entryDy=0;" parent="1" source="Hf4-NCFFuVOZYVs5iG5I-5" target="Hf4-NCFFuVOZYVs5iG5I-14" edge="1">
          <mxGeometry relative="1" as="geometry" />
        </mxCell>
        <mxCell id="Hf4-NCFFuVOZYVs5iG5I-25" style="edgeStyle=none;rounded=0;orthogonalLoop=1;jettySize=auto;html=1;exitX=1;exitY=0.5;exitDx=0;exitDy=0;entryX=0;entryY=0.5;entryDx=0;entryDy=0;" parent="1" source="Hf4-NCFFuVOZYVs5iG5I-5" target="Hf4-NCFFuVOZYVs5iG5I-15" edge="1">
          <mxGeometry relative="1" as="geometry" />
        </mxCell>
        <mxCell id="Hf4-NCFFuVOZYVs5iG5I-26" style="edgeStyle=none;rounded=0;orthogonalLoop=1;jettySize=auto;html=1;exitX=1;exitY=0.5;exitDx=0;exitDy=0;entryX=0;entryY=0.5;entryDx=0;entryDy=0;" parent="1" source="Hf4-NCFFuVOZYVs5iG5I-5" target="Hf4-NCFFuVOZYVs5iG5I-16" edge="1">
          <mxGeometry relative="1" as="geometry" />
        </mxCell>
        <mxCell id="Hf4-NCFFuVOZYVs5iG5I-27" style="edgeStyle=none;rounded=0;orthogonalLoop=1;jettySize=auto;html=1;exitX=1;exitY=0.5;exitDx=0;exitDy=0;entryX=0;entryY=0.5;entryDx=0;entryDy=0;" parent="1" source="Hf4-NCFFuVOZYVs5iG5I-5" target="Hf4-NCFFuVOZYVs5iG5I-17" edge="1">
          <mxGeometry relative="1" as="geometry" />
        </mxCell>
        <mxCell id="Hf4-NCFFuVOZYVs5iG5I-28" style="edgeStyle=none;rounded=0;orthogonalLoop=1;jettySize=auto;html=1;exitX=1;exitY=0.5;exitDx=0;exitDy=0;entryX=0;entryY=0.5;entryDx=0;entryDy=0;" parent="1" source="Hf4-NCFFuVOZYVs5iG5I-5" target="Hf4-NCFFuVOZYVs5iG5I-18" edge="1">
          <mxGeometry relative="1" as="geometry" />
        </mxCell>
        <mxCell id="Hf4-NCFFuVOZYVs5iG5I-29" style="edgeStyle=none;rounded=0;orthogonalLoop=1;jettySize=auto;html=1;exitX=0;exitY=0.5;exitDx=0;exitDy=0;entryX=1;entryY=0.5;entryDx=0;entryDy=0;" parent="1" source="Hf4-NCFFuVOZYVs5iG5I-8" target="Hf4-NCFFuVOZYVs5iG5I-13" edge="1">
          <mxGeometry relative="1" as="geometry" />
        </mxCell>
        <mxCell id="Hf4-NCFFuVOZYVs5iG5I-30" style="edgeStyle=none;rounded=0;orthogonalLoop=1;jettySize=auto;html=1;exitX=0;exitY=0.5;exitDx=0;exitDy=0;entryX=1;entryY=0.5;entryDx=0;entryDy=0;" parent="1" source="Hf4-NCFFuVOZYVs5iG5I-8" target="Hf4-NCFFuVOZYVs5iG5I-15" edge="1">
          <mxGeometry relative="1" as="geometry" />
        </mxCell>
        <mxCell id="Hf4-NCFFuVOZYVs5iG5I-31" value="View Account details" style="ellipse;whiteSpace=wrap;html=1;fillColor=#dae8fc;strokeColor=#6c8ebf;" parent="1" vertex="1">
          <mxGeometry x="240" y="250" width="120" height="50" as="geometry" />
        </mxCell>
        <mxCell id="Hf4-NCFFuVOZYVs5iG5I-32" style="edgeStyle=none;rounded=0;orthogonalLoop=1;jettySize=auto;html=1;exitX=0;exitY=0.5;exitDx=0;exitDy=0;entryX=1;entryY=0.5;entryDx=0;entryDy=0;" parent="1" source="Hf4-NCFFuVOZYVs5iG5I-8" target="Hf4-NCFFuVOZYVs5iG5I-31" edge="1">
          <mxGeometry relative="1" as="geometry" />
        </mxCell>
        <mxCell id="Hf4-NCFFuVOZYVs5iG5I-33" value="ESOP System" style="text;html=1;strokeColor=none;fillColor=none;align=center;verticalAlign=middle;whiteSpace=wrap;rounded=0;" parent="1" vertex="1">
          <mxGeometry x="180" y="80" width="100" height="20" as="geometry" />
        </mxCell>
      </root>
    </mxGraphModel>
  </diagram>
</mxfile>
